<?xml version="1.0" standalone="no"?>
<!DOCTYPE svg PUBLIC "-//W3C//DTD SVG 20010904//EN"
 "http://www.w3.org/TR/2001/REC-SVG-20010904/DTD/svg10.dtd">
<svg version="1.0" xmlns="http://www.w3.org/2000/svg"
 width="1358.000000pt" height="1002.000000pt" viewBox="0 0 1358.000000 1002.000000"
 preserveAspectRatio="xMidYMid meet">
<metadata>
Created by potrace 1.16, written by Peter Selinger 2001-2019
</metadata>
<g transform="translate(0.000000,1002.000000) scale(0.100000,-0.100000)"
fill="#000000" stroke="none">
<path d="M6700 9364 c-30 -8 -65 -22 -78 -30 -48 -32 -97 -175 -188 -554 -20
-85 -57 -225 -82 -310 -56 -195 -75 -273 -106 -430 -56 -282 -147 -655 -160
-655 -11 0 -90 371 -147 685 -69 384 -98 539 -135 710 -75 349 -93 412 -137
464 -30 35 -41 40 -108 53 -124 22 -243 33 -253 23 -9 -9 26 -206 66 -360 10
-41 25 -138 34 -215 8 -77 21 -174 30 -215 17 -86 31 -164 74 -416 17 -98 35
-195 40 -214 4 -19 11 -60 15 -90 4 -30 12 -91 20 -135 7 -44 19 -123 25 -175
21 -177 71 -404 121 -555 57 -170 87 -228 129 -250 58 -30 181 -48 335 -49
150 -1 150 -1 167 35 34 68 178 602 199 734 11 72 29 173 40 225 11 52 44 210
73 350 52 248 151 651 201 814 13 45 29 106 36 136 12 58 60 208 103 324 19
49 23 72 16 81 -27 33 -234 45 -330 19z"/>
<path d="M8044 9111 c-74 -7 -128 -34 -138 -69 -18 -65 -41 -301 -56 -582 -6
-107 -15 -238 -20 -290 -39 -384 -61 -1554 -30 -1634 19 -51 155 -69 308 -42
126 23 116 -18 124 504 18 1103 31 1817 34 1942 2 74 0 141 -5 149 -9 14 -79
31 -121 29 -14 0 -57 -4 -96 -7z"/>
<path d="M3915 8600 c-667 -9 -720 -15 -757 -83 -10 -20 -31 -738 -32 -1112
-1 -358 14 -1322 23 -1433 9 -116 17 -131 78 -141 21 -3 119 -3 218 1 99 3
313 11 475 17 252 9 312 14 414 36 65 14 124 29 130 32 105 65 268 215 260
238 -4 8 -9 16 -13 16 -72 15 -399 11 -551 -5 -169 -19 -525 -32 -532 -20 -3
5 -2 70 2 144 5 85 2 235 -7 404 -12 223 -12 271 -1 282 12 13 103 21 416 41
56 3 106 11 111 17 14 17 25 156 17 210 -6 38 -12 49 -34 57 -14 5 -112 10
-216 9 -105 0 -218 3 -250 6 -59 7 -59 7 -53 208 4 111 10 332 14 493 4 196
10 293 17 296 6 2 43 0 81 -5 39 -5 156 -10 260 -11 194 -1 315 13 398 48 52
22 141 124 157 179 16 57 4 75 -51 80 -19 1 -277 0 -574 -4z"/>
<path d="M9285 8357 c-72 -24 -264 -137 -299 -175 -40 -46 4 -64 132 -54 82 6
551 -18 557 -28 11 -18 15 -674 5 -845 -6 -104 -13 -305 -16 -445 -3 -140 -12
-307 -20 -370 -17 -134 -19 -327 -3 -367 6 -15 20 -38 31 -50 21 -22 28 -23
187 -23 91 0 171 4 177 8 6 4 16 17 22 28 29 55 45 1059 23 1464 -18 323 -24
535 -18 562 7 25 7 25 279 32 435 11 508 24 579 103 46 51 95 151 80 166 -7 7
-87 6 -263 -4 -139 -8 -388 -13 -553 -12 -293 2 -386 4 -705 17 -117 5 -165 3
-195 -7z"/>
<path d="M11199 7478 c-16 -30 -5 -116 30 -223 79 -241 204 -592 249 -700 28
-66 91 -237 140 -380 104 -302 133 -377 209 -536 55 -116 55 -116 33 -205 -12
-49 -39 -165 -61 -258 -65 -283 -196 -584 -315 -726 -119 -143 -179 -189 -394
-299 -8 -5 -15 -19 -15 -32 0 -24 1 -24 103 -22 80 1 133 9 246 37 181 46 243
73 313 139 64 60 114 134 202 298 80 152 209 498 256 689 9 36 29 106 45 155
16 50 61 223 100 385 40 162 89 349 110 415 21 66 57 192 80 280 23 88 68 248
100 356 32 108 70 252 84 320 15 68 35 155 47 192 25 85 19 93 -64 102 -176
17 -324 10 -351 -15 -5 -5 -14 -39 -21 -77 -18 -103 -53 -259 -103 -458 -24
-99 -53 -219 -63 -266 -22 -107 -108 -411 -119 -422 -4 -5 -15 11 -25 35 -51
125 -317 909 -380 1120 -10 31 -26 66 -36 76 -27 29 -103 42 -254 42 -128 0
-135 -1 -146 -22z"/>
<path d="M1213 7278 c-18 -20 -22 -45 -31 -213 -6 -104 -11 -358 -12 -564 -1
-206 -4 -379 -7 -384 -3 -5 -10 -179 -14 -386 -5 -207 -13 -500 -18 -651 -32
-899 -34 -995 -22 -1052 20 -92 17 -91 220 -84 97 3 205 10 241 16 36 6 250
15 475 20 226 6 518 14 650 18 284 9 283 8 341 125 30 58 36 83 38 136 1 66 1
66 -38 85 -108 53 -745 58 -1180 10 -148 -16 -181 -14 -190 14 -3 9 -8 465
-10 1012 -4 780 -8 1038 -21 1194 -8 109 -17 202 -20 206 -2 4 -11 67 -20 141
-25 223 -28 231 -88 277 -65 48 -189 102 -238 102 -24 0 -42 -7 -56 -22z"/>
<path d="M4936 5497 c-15 -11 -19 -37 -26 -148 -5 -73 -9 -179 -10 -234 0 -55
-4 -105 -8 -111 -4 -7 -43 -15 -87 -19 -80 -8 -80 -8 -230 -154 -83 -80 -206
-195 -274 -256 -202 -180 -320 -286 -406 -365 -44 -41 -111 -101 -148 -133
-37 -32 -67 -66 -67 -76 0 -10 12 -24 28 -30 47 -22 244 -33 388 -21 72 6 139
7 148 4 20 -8 18 58 16 -710 -2 -651 -2 -651 41 -657 24 -3 47 -3 52 0 6 3 8
280 6 692 l-4 686 716 0 c716 0 716 0 754 30 155 122 333 225 477 275 120 41
347 97 448 109 120 15 375 13 510 -4 328 -41 477 -101 711 -288 155 -123 82
-109 571 -113 337 -3 764 -8 1072 -14 5 0 6 -109 1 -257 -12 -434 -9 -1081 5
-1098 14 -17 66 -20 75 -6 3 6 7 311 8 678 1 367 6 674 11 682 8 12 44 13 212
8 204 -7 204 -7 220 18 20 31 15 38 -74 115 -128 109 -617 591 -771 759 -42
45 -89 90 -106 98 -36 19 -476 23 -2560 26 -748 1 -1365 5 -1371 9 -16 11 -23
162 -15 333 4 83 3 158 -1 168 -8 15 -25 17 -151 17 -102 0 -148 -4 -161 -13z"/>
<path d="M6735 3740 c-1 -3 -3 -134 -4 -292 -1 -158 -8 -399 -15 -535 -13
-238 -12 -318 3 -327 4 -3 146 -6 316 -8 309 -3 309 -3 318 37 5 23 5 212 0
455 -4 228 -8 474 -8 545 0 130 0 130 -303 130 -167 0 -305 -2 -307 -5z m517
-102 c3 -7 2 -224 -1 -483 -6 -470 -6 -470 -106 -476 -55 -4 -151 -8 -214 -10
-113 -4 -114 -3 -124 21 -9 26 -7 163 14 660 9 231 13 277 27 288 11 9 69 12
208 12 144 0 193 -3 196 -12z"/>
<path d="M13296 2744 c-7 -19 12 -47 25 -38 5 3 9 16 9 30 0 27 -24 33 -34 8z"/>
<path d="M9702 2045 c-65 -18 -99 -40 -118 -76 -21 -41 -17 -73 11 -107 34
-40 72 -57 203 -87 84 -20 117 -33 136 -52 34 -33 33 -68 -2 -103 -63 -62
-203 -66 -285 -8 -23 16 -35 19 -59 12 -16 -5 -30 -13 -31 -19 -1 -16 102 -64
163 -75 176 -34 352 64 311 172 -18 49 -71 77 -205 110 -143 35 -176 54 -176
102 0 86 162 129 274 72 40 -20 53 -22 72 -14 38 18 28 35 -33 58 -75 28 -191
35 -261 15z"/>
<path d="M5170 2042 c-225 -2 -225 -2 -223 -255 2 -252 2 -252 105 -252 103 0
103 0 103 25 0 23 -3 24 -65 25 -65 0 -65 0 -65 95 0 95 0 95 180 96 180 2
180 2 180 25 0 24 0 24 -165 26 -91 1 -173 2 -183 2 -16 1 -18 10 -15 79 3 77
3 77 196 80 164 2 194 5 199 18 13 35 -16 39 -247 36z"/>
<path d="M7290 2040 c-19 -4 -111 -55 -203 -114 -92 -59 -172 -104 -178 -100
-7 4 -9 45 -8 108 3 101 3 101 -34 104 -37 3 -37 3 -37 -253 0 -256 0 -256 36
-253 37 3 37 3 38 127 1 81 5 126 12 128 6 2 93 -55 192 -126 170 -122 184
-130 231 -132 64 -3 73 5 31 28 -38 21 -196 126 -290 193 -36 26 -65 52 -65
60 0 14 157 115 279 180 99 52 98 72 -4 50z"/>
<path d="M3080 1785 c0 -255 0 -255 128 -255 199 0 281 19 345 78 21 20 27 35
27 67 0 52 -30 88 -89 106 -22 7 -41 16 -41 20 0 4 18 18 39 30 73 41 77 107
10 161 -45 36 -114 48 -286 48 -133 0 -133 0 -133 -255z m313 194 c80 -22 102
-90 44 -133 -24 -18 -47 -22 -145 -26 -64 -3 -123 -1 -129 3 -14 10 -18 122
-7 151 5 13 24 16 103 16 53 0 113 -5 134 -11z m38 -218 c28 -11 57 -28 65
-38 37 -50 -8 -113 -94 -132 -71 -15 -225 -14 -240 1 -12 12 -17 143 -6 172
10 25 206 23 275 -3z"/>
<path d="M4030 1786 c0 -257 0 -257 37 -254 36 3 36 3 37 118 1 115 1 115 63
118 61 3 61 3 170 -117 105 -117 109 -120 151 -121 23 0 42 2 42 4 0 3 -45 51
-100 108 -55 57 -100 109 -100 115 0 7 12 15 28 19 88 19 134 53 148 109 11
42 -25 97 -81 125 -46 23 -63 25 -222 28 -173 4 -173 4 -173 -252z m323 193
c53 -14 79 -43 75 -81 -4 -42 -39 -66 -113 -78 -83 -14 -188 -13 -203 2 -13
13 -17 149 -5 161 10 11 204 8 246 -4z"/>
<path d="M5915 1804 c-82 -130 -156 -240 -162 -246 -23 -19 -14 -28 27 -28 38
0 42 3 76 58 20 31 43 63 52 70 11 8 67 12 198 12 182 0 182 0 209 -31 14 -18
35 -49 46 -70 18 -35 23 -39 59 -39 44 0 50 12 21 44 -20 23 -279 429 -288
452 -3 9 -20 14 -47 13 -41 0 -41 0 -191 -235z m284 31 c35 -58 61 -108 59
-111 -15 -14 -308 -7 -308 7 0 13 114 202 139 232 14 17 16 17 31 -2 8 -12 44
-68 79 -126z"/>
<path d="M7760 2035 c0 -3 -1 -116 -1 -252 0 -248 0 -248 35 -251 35 -3 35 -3
38 120 3 123 3 123 178 124 175 2 175 2 175 25 0 24 0 24 -178 27 -178 2 -178
2 -175 80 3 77 3 77 191 80 187 2 187 2 187 27 0 25 0 25 -225 25 -124 0 -225
-2 -225 -5z"/>
<path d="M8788 1962 c-64 -103 -209 -327 -244 -377 -40 -56 -40 -55 5 -55 40
0 42 2 86 70 45 70 45 70 234 70 214 0 200 5 251 -85 31 -54 33 -55 76 -55 24
0 44 2 44 5 0 3 -15 24 -32 48 -18 23 -91 135 -163 249 -130 207 -130 207
-170 207 -39 0 -41 -1 -87 -77z m182 -128 c70 -115 70 -130 0 -119 -19 2 -83
5 -142 5 -75 0 -108 4 -108 11 0 13 114 202 139 232 14 17 16 17 31 -3 9 -11
44 -68 80 -126z"/>
<path d="M10353 2024 c-10 -28 10 -33 132 -36 120 -3 120 -3 123 -231 2 -228
2 -228 39 -225 36 3 36 3 34 213 -1 116 1 218 4 228 6 15 22 17 131 17 124 0
124 0 124 25 0 25 0 25 -290 25 -255 0 -291 -2 -297 -16z"/>
<path d="M5218 1579 c-7 -4 -6 -14 1 -28 11 -19 20 -21 102 -21 72 0 91 3 96
16 3 8 1 20 -5 26 -11 11 -177 17 -194 7z"/>
<path d="M5994 1180 c-243 -37 -372 -197 -289 -359 54 -108 192 -171 373 -171
219 0 382 111 382 260 0 96 -50 169 -150 220 -90 45 -218 66 -316 50z m167
-54 c84 -18 137 -45 177 -90 88 -100 52 -232 -82 -300 -49 -26 -72 -31 -150
-34 -115 -5 -192 10 -253 51 -155 104 -109 308 81 362 96 27 141 29 227 11z"/>
<path d="M8072 1179 c-102 -17 -172 -71 -172 -133 0 -68 52 -104 205 -142 61
-15 125 -35 143 -46 60 -36 52 -102 -18 -139 -67 -36 -218 -21 -271 27 -15 14
-20 14 -48 -1 -17 -8 -31 -18 -31 -21 0 -3 30 -19 67 -36 124 -58 290 -48 375
22 45 37 55 76 33 123 -22 46 -73 72 -200 102 -59 14 -120 32 -136 40 -33 17
-46 56 -33 93 23 65 173 89 267 43 40 -19 53 -22 73 -12 35 16 30 27 -22 51
-38 16 -155 43 -174 39 -3 -1 -29 -5 -58 -10z"/>
<path d="M4682 913 c3 -258 3 -258 37 -258 35 0 35 0 35 120 1 120 1 120 93
125 51 3 143 3 205 0 113 -5 113 -5 118 -125 5 -120 5 -120 38 -120 33 0 33 0
33 255 1 255 1 255 -35 258 -35 3 -35 3 -38 -105 -3 -108 -3 -108 -118 -113
-63 -3 -155 -3 -205 0 -90 5 -90 5 -90 110 -1 105 -1 105 -38 108 -37 3 -37 3
-35 -255z"/>
<path d="M6900 983 c0 -181 1 -188 25 -229 38 -65 111 -97 232 -102 147 -7
245 35 284 122 16 35 19 67 19 219 0 178 0 178 -36 175 -37 -3 -37 -3 -36
-168 2 -189 -5 -219 -61 -264 -38 -30 -41 -31 -147 -31 -118 0 -139 8 -184 69
-19 25 -21 44 -24 212 -3 184 -3 184 -38 184 -34 0 -34 0 -34 -187z"/>
<path d="M8810 1163 c-1 -2 -1 -116 -1 -254 0 -250 0 -250 238 -250 238 0 238
0 241 25 3 26 3 26 -203 26 -206 0 -206 0 -203 93 3 92 3 92 186 95 182 2 182
2 182 27 0 25 0 25 -182 27 -183 3 -183 3 -186 80 -3 76 -3 76 30 83 17 4 106
6 197 4 166 -4 166 -4 166 20 0 23 0 23 -232 25 -128 0 -233 0 -233 -1z"/>
<path d="M9567 982 c-24 -26 -21 -78 4 -103 24 -24 75 -20 97 8 18 25 15 77
-6 96 -25 22 -75 21 -95 -1z"/>
<path d="M4281 964 c-12 -15 -21 -35 -21 -46 0 -26 44 -68 73 -68 31 0 67 39
67 73 0 63 -80 90 -119 41z"/>
</g>
</svg>
